<?xml version="1.0" encoding="UTF-8" standalone="no"?><svg xmlns="http://www.w3.org/2000/svg" xmlns:xlink="http://www.w3.org/1999/xlink" contentScriptType="application/ecmascript" contentStyleType="text/css" height="97px" preserveAspectRatio="none" style="width:965px;height:97px;" version="1.1" viewBox="0 0 965 97" width="965px" zoomAndPan="magnify"><defs><filter height="300%" id="fpio724aooe1h" width="300%" x="-1" y="-1"><feGaussianBlur result="blurOut" stdDeviation="2.0"/><feColorMatrix in="blurOut" result="blurOut2" type="matrix" values="0 0 0 0 0 0 0 0 0 0 0 0 0 0 0 0 0 0 .4 0"/><feOffset dx="4.0" dy="4.0" in="blurOut2" result="blurOut3"/><feBlend in="SourceGraphic" in2="blurOut3" mode="normal"/></filter></defs><g><!--MD5=[795c86273b481920a06b1da5a15cf1a6]
cluster NemoServer--><polygon fill="#FFFFFF" filter="url(#fpio724aooe1h)" points="16,16,26,6,953,6,953,75,943,85,16,85,16,16" style="stroke:#000000;stroke-width:2.0;"/><line style="stroke:#000000;stroke-width:2.0;" x1="943" x2="953" y1="16" y2="6"/><line style="stroke:#000000;stroke-width:2.0;" x1="16" x2="943" y1="16" y2="16"/><line style="stroke:#000000;stroke-width:2.0;" x1="943" x2="943" y1="16" y2="85"/><text fill="#000000" font-family="sans-serif" font-size="14" font-weight="bold" lengthAdjust="spacing" textLength="98" x="431.5" y="31.9951">NemoServer</text><!--MD5=[c7285cedf182e5bbf818291055449775]
entity BackendContainer--><rect fill="#FEFECE" filter="url(#fpio724aooe1h)" height="39.2969" style="stroke:#A80036;stroke-width:1.0;" width="158" x="787" y="38"/><polygon fill="#FEFECE" points="928,43,928,57,940,57,940,49,934,43,928,43" style="stroke:#A80036;stroke-width:1.0;"/><line style="stroke:#A80036;stroke-width:1.0;" x1="934" x2="934" y1="43" y2="49"/><line style="stroke:#A80036;stroke-width:1.0;" x1="940" x2="934" y1="49" y2="49"/><text fill="#000000" font-family="sans-serif" font-size="14" lengthAdjust="spacing" textLength="128" x="797" y="63.9951">BackendContainer</text><!--MD5=[e50b295064139eefc4c2c20a1f05194e]
entity DatabaseContainer--><rect fill="#FEFECE" filter="url(#fpio724aooe1h)" height="39.2969" style="stroke:#A80036;stroke-width:1.0;" width="163" x="588.5" y="38"/><polygon fill="#FEFECE" points="734.5,43,734.5,57,746.5,57,746.5,49,740.5,43,734.5,43" style="stroke:#A80036;stroke-width:1.0;"/><line style="stroke:#A80036;stroke-width:1.0;" x1="740.5" x2="740.5" y1="43" y2="49"/><line style="stroke:#A80036;stroke-width:1.0;" x1="746.5" x2="740.5" y1="49" y2="49"/><text fill="#000000" font-family="sans-serif" font-size="14" lengthAdjust="spacing" textLength="133" x="598.5" y="63.9951">DatabaseContainer</text><!--MD5=[451d6ed56d1b64429f53b6651e3c7a30]
entity NginxContainer--><rect fill="#FEFECE" filter="url(#fpio724aooe1h)" height="39.2969" style="stroke:#A80036;stroke-width:1.0;" width="135" x="418.5" y="38"/><polygon fill="#FEFECE" points="536.5,43,536.5,57,548.5,57,548.5,49,542.5,43,536.5,43" style="stroke:#A80036;stroke-width:1.0;"/><line style="stroke:#A80036;stroke-width:1.0;" x1="542.5" x2="542.5" y1="43" y2="49"/><line style="stroke:#A80036;stroke-width:1.0;" x1="548.5" x2="542.5" y1="49" y2="49"/><text fill="#000000" font-family="sans-serif" font-size="14" lengthAdjust="spacing" textLength="105" x="428.5" y="63.9951">NginxContainer</text><!--MD5=[55edf5130320b630a41705cc17e6a86e]
entity FrontendContainer--><rect fill="#FEFECE" filter="url(#fpio724aooe1h)" height="39.2969" style="stroke:#A80036;stroke-width:1.0;" width="160" x="223" y="38"/><polygon fill="#FEFECE" points="366,43,366,57,378,57,378,49,372,43,366,43" style="stroke:#A80036;stroke-width:1.0;"/><line style="stroke:#A80036;stroke-width:1.0;" x1="372" x2="372" y1="43" y2="49"/><line style="stroke:#A80036;stroke-width:1.0;" x1="378" x2="372" y1="49" y2="49"/><text fill="#000000" font-family="sans-serif" font-size="14" lengthAdjust="spacing" textLength="130" x="233" y="63.9951">FrontendContainer</text><!--MD5=[98428ff76fb9beb025564b6f0c50c6e7]
entity RabbitMQContainer--><rect fill="#FEFECE" filter="url(#fpio724aooe1h)" height="39.2969" style="stroke:#A80036;stroke-width:1.0;" width="164" x="24" y="38"/><polygon fill="#FEFECE" points="171,43,171,57,183,57,183,49,177,43,171,43" style="stroke:#A80036;stroke-width:1.0;"/><line style="stroke:#A80036;stroke-width:1.0;" x1="177" x2="177" y1="43" y2="49"/><line style="stroke:#A80036;stroke-width:1.0;" x1="183" x2="177" y1="49" y2="49"/><text fill="#000000" font-family="sans-serif" font-size="14" lengthAdjust="spacing" textLength="134" x="34" y="63.9951">RabbitMQContainer</text><!--MD5=[9f80f7e973ef1a33c16b81b4a721b2ec]
@startuml
<style>
componentDiagram {
  BackGroundColor palegreen
  LineThickness 2
  LineColor red
}
</style>

node NemoServer {
  artifact BackendContainer {
  }
  artifact DatabaseContainer {
  }
  artifact NginxContainer {
  }
  artifact FrontendContainer {
  }
  artifact RabbitMQContainer {
  }
}
@enduml

PlantUML version 1.2021.01(Tue Feb 02 07:55:08 UTC 2021)
(GPL source distribution)
Java Runtime: OpenJDK Runtime Environment
JVM: OpenJDK 64-Bit Server VM
Default Encoding: UTF-8
Language: en
Country: null
--></g></svg>